HIERARCHY
ROOT hips
{
	OFFSET 0.000000 104.274902 0.000000
	CHANNELS 6 Xposition Yposition Zposition Xrotation Yrotation Zrotation
	JOINT spine
	{
		OFFSET 0.000000 10.181549 0.131524
		CHANNELS 6 Xposition Yposition Zposition Xrotation Yrotation Zrotation
		JOINT chest
		{
			OFFSET 0.000000 9.893990 -1.470706
			CHANNELS 3 Xrotation Yrotation Zrotation
			JOINT upperChest
			{
				OFFSET 0.000000 9.220787 -1.370637
				CHANNELS 3 Xrotation Yrotation Zrotation
				JOINT neck
				{
					OFFSET 0.000000 16.740372 -2.049022
					CHANNELS 6 Xposition Yposition Zposition Xrotation Yrotation Zrotation
					JOINT head
					{
						OFFSET 0.000000 9.617859 1.684976
						CHANNELS 6 Xposition Yposition Zposition Xrotation Yrotation Zrotation
						JOINT headEnd
						{
							OFFSET 0.000000 22.037384 7.501072
							CHANNELS 6 Xposition Yposition Zposition Xrotation Yrotation Zrotation
							End Site
							{
								OFFSET 0.000000 23.106567 -2.828246
							}
						}
					}
				}
				JOINT rightShoulder
				{
					OFFSET -4.570000 11.014877 -2.160840
					CHANNELS 6 Xposition Yposition Zposition Xrotation Yrotation Zrotation
					JOINT rightUpperArm
					{
						OFFSET -10.592867 -0.524796 -2.232105
						CHANNELS 3 Xrotation Yrotation Zrotation
						JOINT rightLowerArm
						{
							OFFSET -27.841497 0.000000 -0.000002
							CHANNELS 3 Xrotation Yrotation Zrotation
							JOINT rightHand
							{
								OFFSET -28.328812 0.000000 -0.000001
								CHANNELS 3 Xrotation Yrotation Zrotation
								JOINT rightThumbProximal
								{
									OFFSET -2.464798 -1.573990 2.681911
									CHANNELS 6 Xposition Yposition Zposition Xrotation Yrotation Zrotation
									JOINT rightThumbIntermediate
									{
										OFFSET -3.244781 -1.873383 1.873376
										CHANNELS 3 Xrotation Yrotation Zrotation
										JOINT rightThumbDistal
										{
											OFFSET -2.646263 -1.527817 1.527818
											CHANNELS 6 Xposition Yposition Zposition Xrotation Yrotation Zrotation
											JOINT rightHandThumb4
											{
												OFFSET -1.994591 -1.151581 1.151575
												CHANNELS 6 Xposition Yposition Zposition Xrotation Yrotation Zrotation
												End Site
												{
													OFFSET -1.860176 -1.142715 1.365483
												}
											}
										}
									}
								}
								JOINT rightIndexProximal
								{
									OFFSET -9.108299 -0.517883 2.259803
									CHANNELS 6 Xposition Yposition Zposition Xrotation Yrotation Zrotation
									JOINT rightIndexIntermediate
									{
										OFFSET -3.699997 0.000000 0.000000
										CHANNELS 3 Xrotation Yrotation Zrotation
										JOINT rightIndexDistal
										{
											OFFSET -2.850006 0.000000 0.000000
											CHANNELS 3 Xrotation Yrotation Zrotation
											JOINT rightHandIndex4
											{
												OFFSET -2.772194 0.000000 0.000000
												CHANNELS 3 Xrotation Yrotation Zrotation
												End Site
												{
													OFFSET -2.772202 0.000000 -0.000484
												}
											}
										}
									}
								}
								JOINT rightMiddleProximal
								{
									OFFSET -9.532501 0.000000 -0.000000
									CHANNELS 6 Xposition Yposition Zposition Xrotation Yrotation Zrotation
									JOINT rightMiddleIntermediate
									{
										OFFSET -3.699997 0.000000 0.000000
										CHANNELS 3 Xrotation Yrotation Zrotation
										JOINT rightMiddleDistal
										{
											OFFSET -2.949997 0.000000 0.000000
											CHANNELS 3 Xrotation Yrotation Zrotation
											JOINT rightHandMiddle4
											{
												OFFSET -2.946594 0.000000 0.000000
												CHANNELS 3 Xrotation Yrotation Zrotation
												End Site
												{
													OFFSET -2.946602 0.000000 -0.000982
												}
											}
										}
									}
								}
								JOINT rightRingProximal
								{
									OFFSET -9.103600 -0.043106 -1.865100
									CHANNELS 6 Xposition Yposition Zposition Xrotation Yrotation Zrotation
									JOINT rightRingIntermediate
									{
										OFFSET -3.379303 0.000000 0.000000
										CHANNELS 3 Xrotation Yrotation Zrotation
										JOINT rightRingDistal
										{
											OFFSET -2.889694 0.000000 0.000000
											CHANNELS 3 Xrotation Yrotation Zrotation
											JOINT rightHandRing4
											{
												OFFSET -2.638802 0.000000 0.000000
												CHANNELS 3 Xrotation Yrotation Zrotation
												End Site
												{
													OFFSET -2.638802 0.000000 0.004218
												}
											}
										}
									}
								}
								JOINT rightLittleProximal
								{
									OFFSET -8.076698 -0.486725 -3.806299
									CHANNELS 6 Xposition Yposition Zposition Xrotation Yrotation Zrotation
									JOINT rightLittleIntermediate
									{
										OFFSET -3.600006 0.000000 0.000000
										CHANNELS 3 Xrotation Yrotation Zrotation
										JOINT rightLittleDistal
										{
											OFFSET -2.099998 0.000000 0.000000
											CHANNELS 3 Xrotation Yrotation Zrotation
											JOINT rightHandPinky4
											{
												OFFSET -2.115791 0.000000 0.000000
												CHANNELS 3 Xrotation Yrotation Zrotation
												End Site
												{
													OFFSET -2.115799 0.000000 0.000174
												}
											}
										}
									}
								}
							}
						}
					}
				}
				JOINT leftShoulder
				{
					OFFSET 4.570400 11.014679 -2.160816
					CHANNELS 6 Xposition Yposition Zposition Xrotation Yrotation Zrotation
					JOINT leftUpperArm
					{
						OFFSET 10.592373 -0.524597 -2.232116
						CHANNELS 3 Xrotation Yrotation Zrotation
						JOINT leftLowerArm
						{
							OFFSET 27.841488 0.000000 0.000001
							CHANNELS 3 Xrotation Yrotation Zrotation
							JOINT leftHand
							{
								OFFSET 28.328808 0.000000 -0.000000
								CHANNELS 3 Xrotation Yrotation Zrotation
								JOINT leftThumbProximal
								{
									OFFSET 2.466103 -1.576202 2.681698
									CHANNELS 6 Xposition Yposition Zposition Xrotation Yrotation Zrotation
									JOINT leftThumbIntermediate
									{
										OFFSET 3.243317 -1.872528 1.872530
										CHANNELS 3 Xrotation Yrotation Zrotation
										JOINT leftThumbDistal
										{
											OFFSET 2.647881 -1.528763 1.528754
											CHANNELS 6 Xposition Yposition Zposition Xrotation Yrotation Zrotation
											JOINT leftHandThumb4
											{
												OFFSET 1.998924 -1.154083 1.154080
												CHANNELS 6 Xposition Yposition Zposition Xrotation Yrotation Zrotation
												End Site
												{
													OFFSET 1.884041 -1.149155 1.337651
												}
											}
										}
									}
								}
								JOINT leftIndexProximal
								{
									OFFSET 9.109299 -0.518005 2.259900
									CHANNELS 6 Xposition Yposition Zposition Xrotation Yrotation Zrotation
									JOINT leftIndexIntermediate
									{
										OFFSET 3.699997 0.000000 0.000000
										CHANNELS 3 Xrotation Yrotation Zrotation
										JOINT leftIndexDistal
										{
											OFFSET 2.850006 0.000000 0.000000
											CHANNELS 3 Xrotation Yrotation Zrotation
											JOINT leftHandIndex4
											{
												OFFSET 2.774895 0.000000 0.000000
												CHANNELS 3 Xrotation Yrotation Zrotation
												End Site
												{
													OFFSET 2.774902 0.000000 -0.000072
												}
											}
										}
									}
								}
								JOINT leftMiddleProximal
								{
									OFFSET 9.533401 0.000000 0.000000
									CHANNELS 6 Xposition Yposition Zposition Xrotation Yrotation Zrotation
									JOINT leftMiddleIntermediate
									{
										OFFSET 3.699997 0.000000 0.000000
										CHANNELS 3 Xrotation Yrotation Zrotation
										JOINT leftMiddleDistal
										{
											OFFSET 2.949997 0.000000 0.000000
											CHANNELS 3 Xrotation Yrotation Zrotation
											JOINT leftHandMiddle4
											{
												OFFSET 2.952896 0.000000 0.000000
												CHANNELS 3 Xrotation Yrotation Zrotation
												End Site
												{
													OFFSET 2.952904 0.000000 0.000165
												}
											}
										}
									}
								}
								JOINT leftRingProximal
								{
									OFFSET 9.104500 -0.042999 -1.865101
									CHANNELS 6 Xposition Yposition Zposition Xrotation Yrotation Zrotation
									JOINT leftRingIntermediate
									{
										OFFSET 3.149994 0.000000 0.000000
										CHANNELS 3 Xrotation Yrotation Zrotation
										JOINT leftRingDistal
										{
											OFFSET 2.950005 0.000000 0.000000
											CHANNELS 3 Xrotation Yrotation Zrotation
											JOINT leftHandRing4
											{
												OFFSET 2.644302 0.000000 0.000000
												CHANNELS 3 Xrotation Yrotation Zrotation
												End Site
												{
													OFFSET 2.644302 0.000000 0.000083
												}
											}
										}
									}
								}
								JOINT leftLittleProximal
								{
									OFFSET 8.077805 -0.486893 -3.806302
									CHANNELS 6 Xposition Yposition Zposition Xrotation Yrotation Zrotation
									JOINT leftLittleIntermediate
									{
										OFFSET 3.600006 0.000000 0.000000
										CHANNELS 3 Xrotation Yrotation Zrotation
										JOINT leftLittleDistal
										{
											OFFSET 2.099998 0.000000 0.000000
											CHANNELS 3 Xrotation Yrotation Zrotation
											JOINT leftHandPinky4
											{
												OFFSET 2.125496 0.000000 0.000000
												CHANNELS 3 Xrotation Yrotation Zrotation
												End Site
												{
													OFFSET 2.125504 0.000000 -0.001254
												}
											}
										}
									}
								}
							}
						}
					}
				}
			}
		}
	}
	JOINT rightUpperLeg
	{
		OFFSET -8.207800 -6.751701 -1.599544
		CHANNELS 6 Xposition Yposition Zposition Xrotation Yrotation Zrotation
		JOINT rightLowerLeg
		{
			OFFSET 0.000004 -44.370152 0.345934
			CHANNELS 3 Xrotation Yrotation Zrotation
			JOINT rightFoot
			{
				OFFSET 0.000004 -44.423664 -3.043535
				CHANNELS 3 Xrotation Yrotation Zrotation
				JOINT rightToes
				{
					OFFSET 0.000001 -8.728691 10.710592
					CHANNELS 3 Xrotation Yrotation Zrotation
					JOINT rightToesEnd
					{
						OFFSET 0.000000 -0.000665 9.278101
						CHANNELS 3 Xrotation Yrotation Zrotation
						End Site
						{
							OFFSET 0.000000 -0.000665 9.278103
						}
					}
				}
			}
		}
	}
	JOINT leftUpperLeg
	{
		OFFSET 8.207800 -6.751701 -1.599544
		CHANNELS 6 Xposition Yposition Zposition Xrotation Yrotation Zrotation
		JOINT leftLowerLeg
		{
			OFFSET 0.000004 -44.370037 0.346940
			CHANNELS 3 Xrotation Yrotation Zrotation
			JOINT leftFoot
			{
				OFFSET 0.000004 -44.423611 -3.044388
				CHANNELS 3 Xrotation Yrotation Zrotation
				JOINT leftToes
				{
					OFFSET 0.000001 -8.728690 10.710592
					CHANNELS 3 Xrotation Yrotation Zrotation
					JOINT leftToesEnd
					{
						OFFSET 0.000000 -0.000680 9.278101
						CHANNELS 3 Xrotation Yrotation Zrotation
						End Site
						{
							OFFSET 0.000000 -0.000680 9.278101
						}
					}
				}
			}
		}
	}
}
MOTION
Frames: 4
Frame Time: 0.033333
6.098910 99.264343 2.502185 -8.370430 23.973074 8.713299 0.000000 10.181553 0.131520 -7.825339 4.643900 0.036845 8.168803 0.386633 -2.314029 8.185508 0.425379 -2.246326 0.000000 16.740377 -2.049022 4.626789 0.039563 -3.800280 0.000001 9.617853 1.684976 -13.240288 3.875587 -16.405136 0.000009 22.037369 7.501072 0.000001 0.000001 -0.000000 -4.569998 11.014880 -2.160840 0.415464 7.977169 14.036685 57.082483 -3.892624 63.664412 0.000244 108.470364 -0.000176 73.551821 -1.779226 -2.997687 -2.464809 -1.574004 2.681906 21.625639 11.113574 11.672708 19.453291 -44.320964 -3.399059 -2.646262 -1.527791 1.527814 14.641945 -48.780344 -8.907123 -1.994597 -1.151587 1.151578 -0.000001 -0.000001 -0.000000 -9.108305 -0.517888 2.259802 7.444541 -6.930568 94.106271 7.444548 -6.930557 94.106258 7.444558 -6.930556 94.106244 0.000001 0.000004 0.000004 -9.532516 0.000015 -0.000002 4.191672 -6.380512 66.575131 4.191685 -6.380499 66.575158 4.191691 -6.380483 66.575158 0.000000 0.000001 0.000003 -9.103625 -0.043098 -1.865101 3.960658 -6.275994 64.479458 3.960656 -6.275986 64.479445 3.960662 -6.275997 64.479472 -0.000002 0.000001 -0.000001 -8.076716 -0.486721 -3.806302 4.690996 -6.573078 70.999577 4.691016 -6.573074 70.999577 4.691011 -6.573064 70.999571 0.000000 0.000001 0.000002 4.570399 11.014679 -2.160815 0.866712 -8.451703 -3.335881 55.385300 3.732690 -57.896870 -0.000026 -112.595901 -0.000004 71.156897 -0.224947 6.217545 2.466099 -1.576205 2.681697 -4.983978 5.671536 -18.652632 17.022604 47.473226 -3.001934 2.647881 -1.528751 1.528750 1.255895 24.615944 4.550463 1.998932 -1.154083 1.154073 -0.000001 0.000001 -0.000000 9.109289 -0.518000 2.259899 3.641967 6.074481 -61.860873 3.641971 6.074479 -61.860894 3.641967 6.074472 -61.860907 -0.000001 0.000001 -0.000005 9.533406 0.000001 0.000001 2.366655 5.198761 -48.931301 2.369601 5.201289 -48.963526 2.368107 5.200017 -48.947424 0.000001 0.000000 0.000000 9.104499 -0.042987 -1.865103 0.947862 3.491530 -30.369736 0.947866 3.491531 -30.369733 0.947866 3.491519 -30.369767 -0.000001 -0.000002 0.000001 8.077805 -0.486882 -3.806302 1.935316 5.918326 -23.077444 0.577286 -1.308226 -23.933003 0.571287 2.750863 -23.461807 0.000000 -0.000000 0.000000 -8.207801 -6.751722 -1.599544 -15.891461 -2.308791 -16.580423 30.181499 -10.081474 -2.924061 -4.157426 -3.698861 13.028464 -0.365514 0.000004 0.000002 0.000000 -0.000000 0.000000 8.207800 -6.751703 -1.599547 -1.503180 -1.401534 -12.552149 27.384423 9.870383 3.851822 -19.194414 24.827087 0.123268 -0.690870 -0.000002 -0.000001 0.000000 -0.000002 0.000000 
6.154601 99.283340 2.492456 -8.453913 23.843046 8.773690 -0.000000 10.181540 0.131521 -7.971586 4.950212 0.116640 8.205734 0.405114 -2.537915 8.225387 0.448021 -2.465447 0.000000 16.740376 -2.049021 4.568896 0.042206 -3.598190 -0.000007 9.617878 1.684975 -12.906229 3.685319 -15.749148 -0.000005 22.037384 7.501076 0.000001 -0.000000 0.000001 -4.570003 11.014882 -2.160840 0.408464 8.036436 14.154209 57.035259 -3.700193 63.690640 0.000197 108.119456 -0.000142 73.379666 -1.796693 -3.059160 -2.464792 -1.573995 2.681910 21.625634 11.113560 11.672714 19.453297 -44.320947 -3.399065 -2.646255 -1.527808 1.527819 14.641964 -48.780354 -8.907112 -1.994590 -1.151577 1.151590 0.000006 -0.000006 -0.000000 -9.108288 -0.517892 2.259802 7.444538 -6.930570 94.106237 7.444541 -6.930558 94.106251 7.444548 -6.930565 94.106244 0.000004 -0.000002 -0.000000 -9.532502 -0.000003 -0.000003 4.191684 -6.380501 66.575131 4.191679 -6.380492 66.575131 4.191688 -6.380501 66.575145 -0.000002 -0.000001 -0.000000 -9.103616 -0.043106 -1.865102 3.960656 -6.276004 64.479445 3.960670 -6.275984 64.479438 3.960665 -6.275982 64.479458 -0.000002 0.000002 0.000003 -8.076702 -0.486731 -3.806302 4.691002 -6.573082 70.999577 4.691015 -6.573088 70.999564 4.691015 -6.573057 70.999584 0.000004 0.000000 0.000000 4.570402 11.014689 -2.160815 0.871585 -8.590288 -3.399672 55.283425 4.212047 -58.051601 0.000003 -112.753828 -0.000018 71.625906 -0.208367 6.245139 2.466094 -1.576213 2.681703 -4.983986 5.671549 -18.652618 17.022583 47.473230 -3.001938 2.647871 -1.528763 1.528752 1.255890 24.615952 4.550461 1.998921 -1.154095 1.154069 -0.000001 0.000001 0.000001 9.109296 -0.518022 2.259898 3.641987 6.074494 -61.860921 3.641981 6.074477 -61.860873 3.641970 6.074471 -61.860887 -0.000001 0.000001 -0.000003 9.533413 -0.000003 0.000002 2.366655 5.198769 -48.931325 2.369557 5.201299 -48.963529 2.368123 5.200038 -48.947444 0.000000 -0.000000 0.000000 9.104508 -0.043006 -1.865101 0.947864 3.491521 -30.369757 0.947859 3.491564 -30.369757 0.947859 3.491526 -30.369770 -0.000001 -0.000000 -0.000001 8.077810 -0.486886 -3.806299 1.935309 5.918313 -23.077425 0.577275 -1.308211 -23.933003 0.571274 2.750846 -23.461806 -0.000001 -0.000000 0.000001 -8.207799 -6.751704 -1.599542 -15.740767 -2.141995 -16.773999 30.162344 -10.057093 -2.587143 -4.147087 -3.680980 12.899370 -0.390030 -0.000001 -0.000003 0.000000 -0.000000 -0.000000 8.207802 -6.751699 -1.599543 -1.333567 -1.492500 -12.711961 27.199210 9.882107 3.945824 -19.132668 24.986359 0.152216 -0.735533 -0.000002 0.000008 0.000000 0.000004 0.000000 
6.210875 99.300255 2.510551 -8.426758 23.679226 8.631957 0.000000 10.181549 0.131523 -8.192346 5.306889 0.247650 8.194244 0.445353 -2.628969 8.216201 0.490524 -2.550575 0.000000 16.740334 -2.049020 4.492270 0.025295 -3.401268 -0.000003 9.617877 1.684976 -12.483926 3.484691 -15.356509 0.000000 22.037369 7.501069 0.000000 -0.000001 0.000000 -4.569996 11.014844 -2.160839 0.403738 8.069441 14.238771 57.171907 -3.681174 63.823173 0.000209 107.906880 -0.000160 73.057582 -1.783946 -3.126500 -2.464785 -1.573993 2.681908 21.625639 11.113563 11.672710 19.453280 -44.320958 -3.399099 -2.646259 -1.527791 1.527818 14.641952 -48.780361 -8.907125 -1.994595 -1.151581 1.151570 -0.000002 -0.000002 0.000005 -9.108306 -0.517884 2.259799 7.444551 -6.930563 94.106217 7.444559 -6.930559 94.106271 7.444548 -6.930574 94.106258 0.000000 0.000002 0.000002 -9.532487 0.000005 -0.000004 4.191691 -6.380507 66.575145 4.191669 -6.380492 66.575158 4.191688 -6.380508 66.575131 -0.000002 -0.000003 -0.000000 -9.103596 -0.043115 -1.865103 3.960673 -6.275982 64.479451 3.960653 -6.275982 64.479410 3.960666 -6.275979 64.479472 -0.000000 0.000003 0.000000 -8.076678 -0.486723 -3.806303 4.691025 -6.573076 70.999577 4.691012 -6.573061 70.999557 4.691008 -6.573066 70.999557 0.000003 0.000003 0.000003 4.570401 11.014655 -2.160815 0.872328 -8.608054 -3.404871 55.014455 4.259941 -57.980028 -0.000016 -112.744027 -0.000011 71.791545 -0.192743 6.227339 2.466077 -1.576191 2.681697 -4.983974 5.671525 -18.652611 17.022604 47.473220 -3.001945 2.647882 -1.528747 1.528760 1.255895 24.615956 4.550449 1.998924 -1.154074 1.154075 -0.000002 0.000003 0.000003 9.109282 -0.517977 2.259899 3.641967 6.074478 -61.860880 3.641970 6.074477 -61.860907 3.641967 6.074480 -61.860900 -0.000001 -0.000000 0.000002 9.533401 0.000021 -0.000001 2.366663 5.198749 -48.931304 2.369569 5.201281 -48.963540 2.368120 5.200042 -48.947420 -0.000001 -0.000000 -0.000000 9.104483 -0.042986 -1.865103 0.947871 3.491539 -30.369757 0.947877 3.491533 -30.369774 0.947848 3.491526 -30.369746 -0.000001 0.000001 -0.000000 8.077785 -0.486882 -3.806305 1.935320 5.918287 -23.077421 0.577278 -1.308216 -23.932993 0.571287 2.750845 -23.461806 0.000001 -0.000000 -0.000000 -8.207802 -6.751700 -1.599544 -15.655060 -2.049980 -16.605204 30.038134 -9.315025 -2.560242 -4.079753 -4.415218 12.813773 -0.404864 0.000002 0.000000 -0.000000 -0.000000 -0.000000 8.207802 -6.751707 -1.599544 -1.300710 -1.608276 -12.759292 27.086512 10.097188 4.124167 -19.066704 25.092636 0.050280 -0.757443 -0.000008 0.000000 -0.000000 -0.000003 0.000000 
6.264534 99.311249 2.562436 -8.327013 23.478463 8.393558 0.000001 10.181556 0.131519 -8.470978 5.705212 0.372220 8.173228 0.499109 -2.632442 8.196884 0.546009 -2.547217 0.000000 16.740374 -2.049023 4.389182 -0.011461 -3.207235 -0.000000 9.617861 1.684981 -12.219488 3.194324 -14.937291 0.000001 22.037369 7.501077 0.000001 0.000002 0.000001 -4.569997 11.014863 -2.160842 0.401922 8.077838 14.275018 57.436393 -3.769508 64.002581 0.000163 107.832472 -0.000105 72.800767 -1.758225 -3.208242 -2.464791 -1.573993 2.681913 21.625639 11.113589 11.672718 19.453272 -44.320947 -3.399076 -2.646263 -1.527805 1.527833 14.641931 -48.780357 -8.907111 -1.994587 -1.151598 1.151582 -0.000000 -0.000004 0.000005 -9.108301 -0.517874 2.259806 7.444565 -6.930552 94.106278 7.444531 -6.930556 94.106251 7.444550 -6.930558 94.106271 0.000002 0.000002 0.000001 -9.532480 -0.000009 0.000003 4.191695 -6.380497 66.575158 4.191690 -6.380504 66.575158 4.191680 -6.380495 66.575131 -0.000001 -0.000001 0.000002 -9.103610 -0.043115 -1.865098 3.960673 -6.275992 64.479486 3.960664 -6.275982 64.479465 3.960672 -6.275992 64.479431 0.000001 0.000001 0.000005 -8.076688 -0.486746 -3.806295 4.691025 -6.573059 70.999591 4.690997 -6.573069 70.999557 4.691020 -6.573068 70.999564 0.000003 0.000001 0.000003 4.570402 11.014678 -2.160817 0.869315 -8.560486 -3.413418 54.618014 4.049601 -57.798789 0.000018 -112.636875 -0.000009 71.565718 -0.191011 6.205567 2.466091 -1.576212 2.681695 -4.983993 5.671539 -18.652618 17.022626 47.473237 -3.001927 2.647886 -1.528757 1.528762 1.255897 24.615942 4.550464 1.998928 -1.154079 1.154074 0.000002 0.000001 0.000001 9.109301 -0.518009 2.259901 3.641959 6.074474 -61.860914 3.641982 6.074478 -61.860900 3.641966 6.074475 -61.860880 0.000002 0.000002 -0.000002 9.533404 -0.000008 0.000001 2.366647 5.198751 -48.931311 2.369570 5.201311 -48.963516 2.368114 5.200022 -48.947424 -0.000001 -0.000001 0.000000 9.104496 -0.043012 -1.865103 0.947871 3.491547 -30.369757 0.947865 3.491530 -30.369746 0.947858 3.491543 -30.369760 0.000001 -0.000001 0.000001 8.077810 -0.486897 -3.806300 1.935317 5.918295 -23.077420 0.577286 -1.308233 -23.932997 0.571284 2.750832 -23.461802 -0.000000 -0.000000 0.000001 -8.207804 -6.751698 -1.599544 -15.630524 -1.980095 -16.258862 29.881914 -8.715671 -2.728886 -4.007881 -5.020208 12.822025 -0.397142 0.000003 0.000004 -0.000000 -0.000000 0.000000 8.207799 -6.751694 -1.599545 -1.348065 -1.730443 -12.711993 27.055759 10.185336 4.233872 -19.080478 25.377127 0.017846 -0.754007 -0.000017 0.000003 0.000000 0.000002 0.000000 
